<?xml version="1.0" encoding="UTF-8" standalone="no"?>
<!DOCTYPE svg PUBLIC "-//W3C//DTD SVG 1.1//EN" "http://www.w3.org/Graphics/SVG/1.1/DTD/svg11.dtd">
<svg width="100%" height="100%" viewBox="0 0 160 30" version="1.1" xmlns="http://www.w3.org/2000/svg" xmlns:xlink="http://www.w3.org/1999/xlink" xml:space="preserve" style="fill-rule:evenodd;clip-rule:evenodd;stroke-linejoin:round;stroke-miterlimit:1.41421;">
    <g id="Calque-1" transform="matrix(0.450728,0,0,0.450728,0,0)">
        <path d="M124.033,33.138L118.934,33.138L118.934,17.843L113.633,17.843L113.633,13.526L129.335,13.526L129.335,17.843L124.033,17.843L124.033,33.138Z" style="fill:rgb(0,149,152);fill-rule:nonzero;"/>
        <path d="M135.112,23.462C134.627,23.462 134.199,23.545 133.826,23.708C133.451,23.873 133.137,24.09 132.876,24.36C132.617,24.625 132.417,24.943 132.278,25.306C132.139,25.672 132.07,26.061 132.07,26.48C132.07,27.329 132.333,28.04 132.863,28.611C133.391,29.182 134.142,29.469 135.112,29.469C136.084,29.469 136.834,29.182 137.363,28.611C137.892,28.04 138.156,27.329 138.156,26.48C138.156,26.061 138.087,25.672 137.947,25.306C137.807,24.943 137.609,24.625 137.35,24.36C137.09,24.09 136.773,23.873 136.4,23.708C136.029,23.545 135.598,23.462 135.112,23.462M135.112,19.352C136.188,19.352 137.212,19.507 138.182,19.821C139.154,20.131 140.007,20.591 140.744,21.198C141.48,21.805 142.066,22.551 142.5,23.434C142.932,24.321 143.15,25.333 143.15,26.48C143.15,27.606 142.932,28.611 142.5,29.496C142.066,30.38 141.48,31.126 140.744,31.732C140.007,32.341 139.154,32.799 138.182,33.109C137.212,33.423 136.188,33.58 135.112,33.58C134.037,33.58 133.019,33.423 132.057,33.109C131.094,32.799 130.24,32.341 129.495,31.732C128.749,31.126 128.159,30.383 127.727,29.508C127.293,28.633 127.076,27.623 127.076,26.48C127.076,25.333 127.293,24.321 127.727,23.434C128.159,22.551 128.745,21.805 129.481,21.198C130.219,20.591 131.072,20.131 132.043,19.821C133.014,19.507 134.037,19.352 135.112,19.352" style="fill:rgb(0,149,152);fill-rule:nonzero;"/>
        <path d="M149.937,19.793L149.937,26.92C149.937,27.337 149.968,27.722 150.028,28.078C150.089,28.434 150.206,28.74 150.379,29.001C150.552,29.262 150.796,29.461 151.107,29.599C151.42,29.737 151.819,29.809 152.305,29.809C152.789,29.809 153.189,29.737 153.5,29.599C153.812,29.461 154.055,29.262 154.228,29.001C154.402,28.74 154.519,28.434 154.58,28.078C154.641,27.722 154.67,27.337 154.67,26.92L154.67,19.793L159.404,19.793L159.404,27.831C159.404,28.924 159.224,29.836 158.858,30.575C158.494,31.311 157.991,31.902 157.349,32.345C156.709,32.785 155.958,33.101 155.1,33.293C154.242,33.483 153.31,33.58 152.305,33.58C151.298,33.58 150.362,33.483 149.496,33.293C148.628,33.101 147.877,32.785 147.245,32.345C146.613,31.902 146.115,31.311 145.749,30.575C145.386,29.836 145.204,28.924 145.204,27.831L145.204,19.793L149.937,19.793Z" style="fill:rgb(0,149,152);fill-rule:nonzero;"/>
        <path d="M167.599,33.138L162.866,33.138L162.866,23.695L161.331,23.695L161.331,19.793L162.866,19.793L162.866,15.788L167.599,15.788L167.599,19.793L170.278,19.793L170.278,23.695L167.599,23.695L167.599,33.138Z" style="fill:rgb(0,149,152);fill-rule:nonzero;"/>
        <path d="M181.097,24.526C180.976,23.887 180.659,23.373 180.148,22.994C179.636,22.611 179.059,22.421 178.418,22.421C177.724,22.421 177.117,22.597 176.596,22.952C176.077,23.31 175.747,23.832 175.61,24.526L181.097,24.526ZM185.493,27.258L175.531,27.258C175.531,28.229 175.779,28.965 176.272,29.469C176.765,29.972 177.507,30.225 178.495,30.225C178.998,30.225 179.436,30.133 179.809,29.95C180.182,29.767 180.498,29.453 180.759,29.001L185.31,29.001C185.12,29.782 184.803,30.463 184.36,31.043C183.919,31.624 183.39,32.1 182.774,32.474C182.159,32.845 181.487,33.124 180.759,33.305C180.031,33.488 179.284,33.58 178.522,33.58C177.412,33.58 176.384,33.423 175.44,33.109C174.494,32.798 173.68,32.345 172.995,31.744C172.309,31.148 171.774,30.405 171.383,29.52C170.993,28.635 170.798,27.622 170.798,26.479C170.798,25.369 170.981,24.37 171.344,23.486C171.709,22.603 172.215,21.858 172.865,21.25C173.514,20.643 174.291,20.174 175.193,19.845C176.095,19.517 177.092,19.351 178.183,19.351C179.345,19.351 180.377,19.525 181.279,19.871C182.18,20.219 182.944,20.712 183.567,21.354C184.19,21.996 184.669,22.772 184.998,23.683C185.328,24.592 185.493,25.619 185.493,26.762L185.493,27.258Z" style="fill:rgb(0,149,152);fill-rule:nonzero;"/>
        <path d="M199.926,19.793L199.926,26.92C199.926,27.337 199.957,27.722 200.018,28.078C200.079,28.434 200.195,28.74 200.369,29.001C200.542,29.262 200.785,29.461 201.097,29.599C201.409,29.737 201.808,29.809 202.295,29.809C202.779,29.809 203.179,29.737 203.491,29.599C203.802,29.461 204.046,29.262 204.218,29.001C204.391,28.74 204.508,28.434 204.569,28.078C204.63,27.722 204.66,27.337 204.66,26.92L204.66,19.793L209.394,19.793L209.394,27.831C209.394,28.924 209.213,29.836 208.848,30.575C208.485,31.311 207.981,31.902 207.338,32.345C206.699,32.785 205.948,33.101 205.09,33.293C204.232,33.483 203.3,33.58 202.295,33.58C201.289,33.58 200.352,33.483 199.485,33.293C198.617,33.101 197.868,32.785 197.235,32.345C196.603,31.902 196.104,31.311 195.739,30.575C195.376,29.836 195.194,28.924 195.194,27.831L195.194,19.793L199.926,19.793Z" style="fill:rgb(0,149,152);fill-rule:nonzero;"/>
        <path d="M217.145,21.51L217.198,21.51C217.753,20.696 218.368,20.131 219.044,19.82C219.721,19.507 220.528,19.351 221.462,19.351C222.364,19.351 223.132,19.485 223.766,19.756C224.398,20.022 224.913,20.402 225.312,20.886C225.711,21.371 226.006,21.957 226.197,22.642C226.387,23.326 226.482,24.076 226.482,24.892L226.482,33.138L221.749,33.138L221.749,26.634L221.749,25.568C221.749,25.151 221.688,24.762 221.566,24.396C221.446,24.033 221.237,23.73 220.942,23.487C220.647,23.244 220.205,23.123 219.616,23.123C219.131,23.123 218.731,23.206 218.421,23.369C218.108,23.535 217.855,23.762 217.666,24.046C217.476,24.334 217.339,24.663 217.263,25.034C217.185,25.406 217.145,25.801 217.145,26.218L217.145,33.138L212.412,33.138L212.412,19.793L217.145,19.793L217.145,21.51Z" style="fill:rgb(0,149,152);fill-rule:nonzero;"/>
        <path d="M238.914,24.526C238.793,23.887 238.476,23.373 237.966,22.994C237.455,22.611 236.876,22.421 236.236,22.421C235.541,22.421 234.934,22.597 234.415,22.952C233.895,23.31 233.565,23.832 233.427,24.526L238.914,24.526ZM243.309,27.258L233.348,27.258C233.348,28.229 233.596,28.965 234.09,29.469C234.583,29.972 235.325,30.225 236.313,30.225C236.816,30.225 237.253,30.133 237.627,29.95C237.999,29.767 238.315,29.453 238.576,29.001L243.129,29.001C242.937,29.782 242.62,30.463 242.178,31.043C241.738,31.624 241.207,32.1 240.592,32.474C239.976,32.845 239.304,33.124 238.576,33.305C237.848,33.488 237.103,33.58 236.338,33.58C235.228,33.58 234.202,33.423 233.257,33.109C232.312,32.798 231.497,32.345 230.813,31.744C230.126,31.148 229.591,30.405 229.199,29.52C228.81,28.635 228.615,27.622 228.615,26.479C228.615,25.369 228.798,24.37 229.161,23.486C229.526,22.603 230.032,21.858 230.682,21.25C231.332,20.643 232.107,20.174 233.01,19.845C233.912,19.517 234.909,19.351 236.002,19.351C237.162,19.351 238.194,19.525 239.096,19.871C239.998,20.219 240.761,20.712 241.385,21.354C242.01,21.996 242.486,22.772 242.816,23.683C243.145,24.592 243.309,25.619 243.309,26.762L243.309,27.258Z" style="fill:rgb(0,149,152);fill-rule:nonzero;"/>
        <path d="M260.555,23.462C260.069,23.462 259.64,23.545 259.268,23.708C258.894,23.873 258.576,24.09 258.317,24.36C258.057,24.625 257.857,24.943 257.719,25.306C257.58,25.672 257.511,26.061 257.511,26.48C257.511,27.329 257.776,28.04 258.303,28.611C258.833,29.182 259.583,29.469 260.555,29.469C261.525,29.469 262.275,29.182 262.805,28.611C263.334,28.04 263.598,27.329 263.598,26.48C263.598,26.061 263.528,25.672 263.39,25.306C263.251,24.943 263.051,24.625 262.792,24.36C262.531,24.09 262.214,23.873 261.841,23.708C261.469,23.545 261.04,23.462 260.555,23.462M252.934,13.526L257.667,13.526L257.667,21.096C258.17,20.505 258.789,20.066 259.527,19.781C260.265,19.494 261.023,19.352 261.802,19.352C262.792,19.352 263.696,19.542 264.521,19.923C265.343,20.306 266.047,20.82 266.629,21.472C267.208,22.123 267.664,22.877 267.993,23.733C268.322,24.593 268.487,25.498 268.487,26.453C268.487,27.425 268.322,28.337 267.993,29.196C267.664,30.054 267.204,30.809 266.615,31.459C266.025,32.108 265.314,32.625 264.482,33.006C263.649,33.388 262.739,33.58 261.75,33.58C260.97,33.58 260.212,33.423 259.475,33.109C258.738,32.799 258.154,32.312 257.719,31.653L257.667,31.653L257.667,33.138L252.934,33.138L252.934,13.526Z" style="fill:rgb(0,149,152);fill-rule:nonzero;"/>
        <path d="M312.911,29.469C313.396,29.469 313.826,29.386 314.199,29.223C314.571,29.056 314.887,28.839 315.147,28.571C315.408,28.304 315.606,27.988 315.746,27.624C315.884,27.258 315.953,26.87 315.953,26.453C315.953,25.602 315.69,24.891 315.16,24.32C314.631,23.747 313.882,23.462 312.911,23.462C311.94,23.462 311.19,23.747 310.66,24.32C310.131,24.891 309.867,25.602 309.867,26.453C309.867,26.87 309.937,27.258 310.075,27.624C310.215,27.988 310.413,28.304 310.674,28.571C310.933,28.839 311.25,29.056 311.623,29.223C311.996,29.386 312.425,29.469 312.911,29.469M320.531,39.405L315.797,39.405L315.797,31.837C315.295,32.426 314.675,32.865 313.938,33.149C313.201,33.437 312.443,33.579 311.662,33.579C310.674,33.579 309.768,33.388 308.944,33.007C308.122,32.625 307.419,32.111 306.836,31.459C306.256,30.809 305.801,30.054 305.472,29.197C305.142,28.337 304.977,27.433 304.977,26.479C304.977,25.506 305.142,24.593 305.472,23.735C305.801,22.877 306.26,22.122 306.849,21.472C307.44,20.823 308.151,20.306 308.983,19.925C309.815,19.541 310.725,19.351 311.714,19.351C312.495,19.351 313.252,19.508 313.991,19.822C314.727,20.131 315.312,20.619 315.746,21.278L315.797,21.278L315.797,19.793L320.531,19.793L320.531,39.405Z" style="fill:rgb(0,149,152);fill-rule:nonzero;"/>
        <path d="M127.826,54.441C128.198,54.276 128.516,54.059 128.777,53.791C129.036,53.522 129.234,53.206 129.374,52.842C129.512,52.477 129.581,52.087 129.581,51.67C129.581,50.82 129.317,50.109 128.789,49.538C128.258,48.966 127.509,48.678 126.539,48.678C125.567,48.678 124.817,48.966 124.289,49.538C123.76,50.109 123.495,50.82 123.495,51.67C123.495,52.087 123.565,52.477 123.704,52.842C123.842,53.206 124.042,53.522 124.302,53.791C124.562,54.059 124.878,54.276 125.252,54.441C125.624,54.605 126.053,54.688 126.539,54.688C127.023,54.688 127.454,54.605 127.826,54.441M118.918,45.012L123.652,45.012L123.652,46.496L123.704,46.496C124.137,45.836 124.722,45.349 125.459,45.039C126.196,44.726 126.955,44.569 127.735,44.569C128.724,44.569 129.634,44.761 130.466,45.143C131.298,45.523 132.009,46.041 132.6,46.689C133.189,47.339 133.648,48.095 133.977,48.952C134.307,49.81 134.471,50.724 134.471,51.695C134.471,52.651 134.307,53.556 133.977,54.415C133.648,55.272 133.193,56.027 132.612,56.677C132.031,57.329 131.329,57.843 130.505,58.226C129.681,58.606 128.777,58.797 127.786,58.797C127.007,58.797 126.248,58.655 125.511,58.368C124.774,58.083 124.155,57.642 123.652,57.054L123.652,64.622L118.918,64.622L118.918,45.012Z" style="fill:rgb(0,149,152);fill-rule:nonzero;"/>
        <path d="M277.799,23.462C277.313,23.462 276.884,23.545 276.511,23.708C276.138,23.873 275.823,24.09 275.562,24.36C275.302,24.625 275.104,24.943 274.963,25.306C274.824,25.672 274.755,26.061 274.755,26.48C274.755,27.329 275.019,28.04 275.549,28.611C276.077,29.182 276.826,29.469 277.799,29.469C278.769,29.469 279.519,29.182 280.048,28.611C280.578,28.04 280.843,27.329 280.843,26.48C280.843,26.061 280.772,25.672 280.634,25.306C280.494,24.943 280.296,24.625 280.035,24.36C279.774,24.09 279.46,23.873 279.086,23.708C278.713,23.545 278.284,23.462 277.799,23.462M285.419,33.138L280.685,33.138L280.685,31.653L280.634,31.653C280.217,32.312 279.637,32.799 278.892,33.109C278.145,33.423 277.383,33.58 276.602,33.58C275.613,33.58 274.708,33.388 273.885,33.006C273.061,32.625 272.349,32.108 271.752,31.459C271.153,30.809 270.688,30.05 270.361,29.182C270.031,28.315 269.865,27.406 269.865,26.453C269.865,25.498 270.031,24.593 270.361,23.733C270.688,22.877 271.144,22.123 271.725,21.472C272.306,20.82 273.008,20.306 273.832,19.923C274.655,19.542 275.562,19.352 276.55,19.352C277.331,19.352 278.089,19.494 278.826,19.781C279.562,20.066 280.182,20.505 280.685,21.096L280.685,19.793L285.419,19.793L285.419,33.138Z" style="fill:rgb(0,149,152);fill-rule:nonzero;"/>
        <path d="M293.299,21.51L293.351,21.51C293.905,20.696 294.521,20.131 295.198,19.82C295.874,19.507 296.68,19.351 297.616,19.351C298.518,19.351 299.285,19.485 299.918,19.756C300.551,20.022 301.067,20.402 301.465,20.886C301.865,21.371 302.159,21.957 302.351,22.642C302.54,23.326 302.636,24.076 302.636,24.892L302.636,33.138L297.902,33.138L297.902,26.634L297.902,25.568C297.902,25.151 297.842,24.762 297.721,24.396C297.6,24.033 297.39,23.73 297.096,23.487C296.8,23.244 296.358,23.123 295.769,23.123C295.284,23.123 294.885,23.206 294.573,23.369C294.26,23.535 294.009,23.762 293.818,24.046C293.628,24.334 293.493,24.663 293.416,25.034C293.338,25.406 293.299,25.801 293.299,26.218L293.299,33.138L288.566,33.138L288.566,19.793L293.299,19.793L293.299,21.51Z" style="fill:rgb(0,149,152);fill-rule:nonzero;"/>
        <path d="M328.152,19.793L328.152,26.92C328.152,27.337 328.182,27.722 328.243,28.078C328.303,28.434 328.42,28.74 328.593,29.001C328.767,29.262 329.011,29.461 329.322,29.599C329.635,29.737 330.033,29.809 330.519,29.809C331.003,29.809 331.403,29.737 331.715,29.599C332.026,29.461 332.27,29.262 332.443,29.001C332.616,28.74 332.733,28.434 332.795,28.078C332.855,27.722 332.885,27.337 332.885,26.92L332.885,19.793L337.619,19.793L337.619,27.831C337.619,28.924 337.437,29.836 337.073,30.575C336.709,31.311 336.206,31.902 335.564,32.345C334.923,32.785 334.173,33.101 333.315,33.293C332.457,33.483 331.525,33.58 330.519,33.58C329.513,33.58 328.577,33.483 327.71,33.293C326.842,33.101 326.092,32.785 325.46,32.345C324.827,31.902 324.328,31.311 323.964,30.575C323.601,29.836 323.418,28.924 323.418,27.831L323.418,19.793L328.152,19.793Z" style="fill:rgb(0,149,152);fill-rule:nonzero;"/>
        <path d="M349.948,24.526C349.827,23.887 349.511,23.373 348.999,22.994C348.488,22.611 347.91,22.421 347.269,22.421C346.575,22.421 345.97,22.597 345.448,22.952C344.927,23.31 344.599,23.832 344.46,24.526L349.948,24.526ZM354.344,27.258L344.382,27.258C344.382,28.229 344.63,28.965 345.123,29.469C345.618,29.972 346.359,30.225 347.346,30.225C347.85,30.225 348.287,30.133 348.662,29.95C349.033,29.767 349.349,29.453 349.609,29.001L354.162,29.001C353.97,29.782 353.653,30.463 353.212,31.043C352.77,31.624 352.241,32.1 351.626,32.474C351.01,32.845 350.339,33.124 349.609,33.305C348.882,33.488 348.136,33.58 347.373,33.58C346.264,33.58 345.236,33.423 344.292,33.109C343.345,32.798 342.531,32.345 341.846,31.744C341.161,31.148 340.624,30.405 340.234,29.52C339.844,28.635 339.649,27.622 339.649,26.479C339.649,25.369 339.83,24.37 340.195,23.486C340.559,22.603 341.067,21.858 341.717,21.25C342.367,20.643 343.142,20.174 344.044,19.845C344.945,19.517 345.943,19.351 347.035,19.351C348.197,19.351 349.229,19.525 350.13,19.871C351.031,20.219 351.794,20.712 352.418,21.354C353.043,21.996 353.52,22.772 353.85,23.683C354.179,24.592 354.344,25.619 354.344,26.762L354.344,27.258Z" style="fill:rgb(0,149,152);fill-rule:nonzero;"/>
        <path d="M126.539,48.678C126.053,48.678 125.624,48.761 125.253,48.925C124.878,49.091 124.562,49.308 124.302,49.576C124.042,49.845 123.843,50.161 123.703,50.526C123.565,50.889 123.495,51.279 123.495,51.696C123.495,52.546 123.76,53.257 124.289,53.828C124.817,54.401 125.567,54.688 126.539,54.688C127.509,54.688 128.259,54.401 128.789,53.828C129.318,53.257 129.582,52.546 129.582,51.696C129.582,51.279 129.512,50.889 129.375,50.526C129.234,50.161 129.036,49.845 128.776,49.576C128.516,49.308 128.199,49.091 127.826,48.925C127.453,48.761 127.024,48.678 126.539,48.678M123.652,46.522L123.703,46.522C124.137,45.862 124.723,45.37 125.46,45.049C126.197,44.73 126.955,44.569 127.735,44.569C128.724,44.569 129.634,44.766 130.466,45.154C131.298,45.544 132.009,46.067 132.6,46.714C133.189,47.366 133.649,48.123 133.977,48.991C134.307,49.86 134.472,50.769 134.472,51.722C134.472,52.694 134.307,53.603 133.977,54.453C133.649,55.302 133.193,56.052 132.613,56.703C132.031,57.355 131.329,57.863 130.505,58.238C129.681,58.61 128.776,58.797 127.787,58.797C127.007,58.797 126.249,58.656 125.511,58.382C124.774,58.103 124.155,57.671 123.652,57.079L123.652,64.623L118.919,64.623L118.919,45.012L123.652,45.012L123.652,46.522Z" style="fill:rgb(0,149,152);fill-rule:nonzero;"/>
        <path d="M143.86,48.678C143.375,48.678 142.947,48.761 142.573,48.925C142.199,49.091 141.885,49.308 141.624,49.576C141.365,49.845 141.165,50.161 141.027,50.526C140.887,50.889 140.818,51.279 140.818,51.696C140.818,52.546 141.081,53.257 141.611,53.828C142.139,54.401 142.89,54.688 143.86,54.688C144.833,54.688 145.582,54.401 146.111,53.828C146.64,53.257 146.904,52.546 146.904,51.696C146.904,51.279 146.835,50.889 146.696,50.526C146.555,50.161 146.357,49.845 146.097,49.576C145.838,49.308 145.521,49.091 145.148,48.925C144.775,48.761 144.346,48.678 143.86,48.678M143.86,44.569C144.936,44.569 145.96,44.726 146.929,45.037C147.902,45.349 148.755,45.809 149.492,46.417C150.228,47.021 150.814,47.77 151.248,48.653C151.679,49.538 151.898,50.552 151.898,51.696C151.898,52.823 151.679,53.828 151.248,54.713C150.814,55.598 150.228,56.345 149.492,56.949C148.755,57.557 147.902,58.018 146.929,58.329C145.96,58.64 144.936,58.797 143.86,58.797C142.785,58.797 141.767,58.64 140.805,58.329C139.842,58.018 138.988,57.557 138.243,56.949C137.497,56.345 136.907,55.602 136.475,54.726C136.041,53.85 135.824,52.841 135.824,51.696C135.824,50.552 136.041,49.538 136.475,48.653C136.907,47.77 137.493,47.021 138.229,46.417C138.966,45.809 139.82,45.349 140.791,45.037C141.762,44.726 142.785,44.569 143.86,44.569" style="fill:rgb(0,149,152);fill-rule:nonzero;"/>
        <path d="M158.685,45.012L158.685,52.139C158.685,52.554 158.716,52.941 158.776,53.296C158.838,53.653 158.954,53.959 159.127,54.219C159.3,54.48 159.544,54.68 159.854,54.818C160.168,54.956 160.567,55.025 161.053,55.025C161.537,55.025 161.937,54.956 162.248,54.818C162.561,54.68 162.803,54.48 162.976,54.219C163.15,53.959 163.267,53.653 163.328,53.296C163.389,52.941 163.418,52.554 163.418,52.139L163.418,45.012L168.152,45.012L168.152,53.048C168.152,54.142 167.972,55.056 167.606,55.793C167.242,56.53 166.739,57.121 166.097,57.562C165.456,58.004 164.706,58.321 163.848,58.509C162.991,58.702 162.058,58.798 161.053,58.798C160.047,58.798 159.111,58.702 158.243,58.509C157.376,58.321 156.626,58.004 155.993,57.562C155.361,57.121 154.862,56.53 154.497,55.793C154.134,55.056 153.952,54.142 153.952,53.048L153.952,45.012L158.685,45.012Z" style="fill:rgb(0,149,152);fill-rule:nonzero;"/>
        <path d="M175.904,47.197L175.956,47.197C176.406,46.364 177.005,45.762 177.75,45.39C178.496,45.016 179.336,44.828 180.273,44.828L181.184,44.828L181.184,49.381C180.856,49.191 180.529,49.07 180.208,49.017C179.887,48.967 179.545,48.939 179.183,48.939C178.522,48.939 177.98,49.042 177.556,49.249C177.131,49.459 176.798,49.743 176.554,50.097C176.311,50.452 176.143,50.878 176.046,51.37C175.952,51.866 175.904,52.396 175.904,52.968L175.904,58.354L171.17,58.354L171.17,45.012L175.904,45.012L175.904,47.197Z" style="fill:rgb(0,149,152);fill-rule:nonzero;"/>
        <path d="M198.428,51.85L201.599,45.012L206.907,45.012L199.937,58.354L196.919,58.354L189.922,45.012L195.228,45.012L198.428,51.85Z" style="fill:rgb(0,149,152);fill-rule:nonzero;"/>
        <path d="M215.124,48.678C214.639,48.678 214.211,48.761 213.837,48.925C213.463,49.091 213.149,49.308 212.888,49.576C212.629,49.845 212.428,50.161 212.291,50.526C212.151,50.889 212.082,51.279 212.082,51.696C212.082,52.546 212.345,53.257 212.875,53.828C213.403,54.401 214.154,54.688 215.124,54.688C216.096,54.688 216.846,54.401 217.375,53.828C217.904,53.257 218.168,52.546 218.168,51.696C218.168,51.279 218.099,50.889 217.96,50.526C217.82,50.161 217.621,49.845 217.36,49.576C217.101,49.308 216.785,49.091 216.412,48.925C216.039,48.761 215.61,48.678 215.124,48.678M215.124,44.569C216.2,44.569 217.224,44.726 218.193,45.037C219.166,45.349 220.019,45.809 220.756,46.417C221.492,47.021 222.078,47.77 222.512,48.653C222.944,49.538 223.162,50.552 223.162,51.696C223.162,52.823 222.944,53.828 222.512,54.713C222.078,55.598 221.492,56.345 220.756,56.949C220.019,57.557 219.166,58.018 218.193,58.329C217.224,58.64 216.2,58.797 215.124,58.797C214.049,58.797 213.031,58.64 212.069,58.329C211.105,58.018 210.252,57.557 209.506,56.949C208.761,56.345 208.171,55.602 207.738,54.726C207.305,53.85 207.088,52.841 207.088,51.696C207.088,50.552 207.305,49.538 207.738,48.653C208.171,47.77 208.757,47.021 209.492,46.417C210.23,45.809 211.084,45.349 212.055,45.037C213.026,44.726 214.049,44.569 215.124,44.569" style="fill:rgb(0,149,152);fill-rule:nonzero;"/>
        <path d="M229.95,45.012L229.95,52.139C229.95,52.554 229.982,52.941 230.041,53.296C230.103,53.653 230.219,53.959 230.392,54.219C230.566,54.48 230.81,54.68 231.121,54.818C231.434,54.956 231.831,55.025 232.318,55.025C232.802,55.025 233.202,54.956 233.514,54.818C233.826,54.68 234.069,54.48 234.241,54.219C234.415,53.959 234.532,53.653 234.593,53.296C234.653,52.941 234.684,52.554 234.684,52.139L234.684,45.012L239.417,45.012L239.417,53.048C239.417,54.142 239.235,55.056 238.871,55.793C238.508,56.53 238.005,57.121 237.362,57.562C236.722,58.004 235.971,58.321 235.113,58.509C234.256,58.702 233.323,58.798 232.318,58.798C231.312,58.798 230.376,58.702 229.51,58.509C228.641,58.321 227.891,58.004 227.258,57.562C226.626,57.121 226.127,56.53 225.763,55.793C225.399,55.056 225.218,54.142 225.218,53.048L225.218,45.012L229.95,45.012Z" style="fill:rgb(0,149,152);fill-rule:nonzero;"/>
        <path d="M251.251,48.445C250.888,48.254 250.471,48.099 250.004,47.977C249.535,47.857 249.101,47.795 248.702,47.795C248.562,47.795 248.408,47.812 248.235,47.849C248.062,47.882 247.9,47.933 247.753,48.003C247.606,48.074 247.48,48.162 247.377,48.275C247.273,48.39 247.22,48.532 247.22,48.704C247.22,48.93 247.302,49.113 247.467,49.25C247.631,49.391 247.828,49.498 248.053,49.577C248.278,49.656 248.512,49.714 248.753,49.76C248.998,49.802 249.196,49.841 249.353,49.876C249.907,49.98 250.419,50.132 250.888,50.332C251.356,50.531 251.763,50.787 252.109,51.1C252.457,51.408 252.729,51.788 252.929,52.23C253.128,52.671 253.229,53.206 253.229,53.828C253.229,54.713 253.045,55.469 252.682,56.091C252.318,56.717 251.837,57.228 251.238,57.626C250.64,58.026 249.969,58.322 249.223,58.509C248.476,58.703 247.715,58.797 246.935,58.797C245.979,58.797 245.048,58.667 244.138,58.407C243.227,58.148 242.366,57.766 241.549,57.263L243.266,53.96C243.509,54.134 243.786,54.296 244.099,54.454C244.41,54.609 244.731,54.752 245.061,54.883C245.391,55.013 245.724,55.117 246.062,55.194C246.401,55.272 246.718,55.311 247.012,55.311C247.168,55.311 247.333,55.294 247.507,55.26C247.68,55.227 247.84,55.163 247.987,55.078C248.134,54.992 248.256,54.887 248.351,54.765C248.447,54.645 248.494,54.488 248.494,54.296C248.494,54.037 248.408,53.833 248.235,53.686C248.062,53.54 247.836,53.418 247.558,53.323C247.281,53.227 246.965,53.143 246.608,53.075C246.253,53.007 245.894,52.919 245.529,52.816C245.165,52.71 244.805,52.584 244.45,52.438C244.095,52.292 243.778,52.082 243.499,51.815C243.223,51.544 242.997,51.211 242.824,50.813C242.651,50.415 242.564,49.911 242.564,49.305C242.564,48.488 242.733,47.783 243.072,47.185C243.409,46.586 243.855,46.092 244.41,45.701C244.965,45.311 245.594,45.024 246.297,44.843C246.999,44.661 247.715,44.569 248.442,44.569C249.204,44.569 249.954,44.635 250.692,44.766C251.428,44.894 252.145,45.116 252.838,45.429L251.251,48.445Z" style="fill:rgb(0,149,152);fill-rule:nonzero;"/>
        <path d="M63.316,31.004L57.355,15.912L49.583,32.58C46.958,37.823 38.366,39.347 32.354,40.185L33.444,37.954L50.836,5.12L64.397,5.12L74.111,25.027L78.373,34.475L87.147,53.429L81.098,53.413L76.379,53.395C74.398,53.414 72.458,53.275 71.636,51.184L69.963,47.132L67.162,40.29L63.316,31.004Z" style="fill:rgb(0,111,78);fill-rule:nonzero;"/>
        <rect x="0" y="58.861" width="89.542" height="7.698" style="fill:rgb(0,111,78);"/>
        <path d="M96.142,0.004L96.142,0L92.545,1.91L79.808,8.605C79.808,8.605 75.427,10.978 72.623,11.559L72.643,11.602L72.617,11.578C73.383,13.993 74.18,15.551 74.91,16.786C75.126,17.154 75.436,17.434 75.797,17.645C76.266,17.942 76.819,18.103 77.388,18.12C77.946,18.138 78.519,18.019 79.046,17.755L96.148,8.565L96.148,0L96.142,0.004Z" style="fill:rgb(237,28,36);fill-rule:nonzero;"/>
        <path d="M74.181,25.096L63.385,31.073C49.869,38.447 32.256,45.596 17.017,44.32C10.58,43.782 6.7,41.357 7.071,37.244C7.493,32.569 11.551,27.637 18.663,22.704C24.106,18.927 28.869,16.886 31.375,16.002C34.649,14.847 37.455,14.322 40.46,14.185C41.19,14.185 41.86,14.245 42.37,14.399C42.357,14.311 42.34,14.23 42.325,14.144L42.329,14.144C40.965,5.396 38.678,4.217 35.084,4.333C24.991,4.657 12.317,11.635 5.597,19.701C1.989,24.033 0.152,29.23 0.066,32.944C-0.065,38.618 2.196,46.345 9.118,50.289C16.811,54.672 27.834,54.383 37.847,52.116C48.602,49.683 57.996,45.042 67.232,40.359L78.442,34.544L96.178,24.363L96.247,13.297L74.181,25.096Z" style="fill:rgb(0,149,152);fill-rule:nonzero;"/>
    </g>
</svg>
